0
SECTION
2
HEADER
9
$ACADVER
1
AC1009
9
$INSUNITS
70
4
9
$MEASUREMENT
70
1
9
$EXTMIN
10
0
20
0
30
0
9
$EXTMAX
10
245
20
180
30
0
0
ENDSEC
0
SECTION
2
ENTITIES
0
LINE
8
0
10
0
20
0
30
0
11
40
21
0
31
0
0
LINE
8
0
10
40
20
0
30
0
11
40
21
25
31
0
0
LINE
8
0
10
40
20
25
30
0
11
0
21
25
31
0
0
LINE
8
0
10
0
20
25
30
0
11
0
21
0
31
0
0
CIRCLE
8
0
10
90
20
12
30
0
40
12
0
ARC
8
0
10
150
20
12
30
0
40
12
50
0
51
90
0
ELLIPSE
8
0
10
20
20
80
30
0
11
19.10673
21
5.910404
31
0
40
0.5
41
0
42
6.283185
0
ELLIPSE
8
0
10
90
20
80
30
0
11
18
21
0
31
0
40
0.5
41
0
42
2.094395
0
SPLINE
8
0
70
8
71
3
72
8
73
4
74
0
40
0
40
0
40
0
40
0
40
1
40
1
40
1
40
1
10
140
20
70
30
0
10
155
20
95
30
0
10
170
20
65
30
0
10
185
20
90
30
0
0
LWPOLYLINE
8
0
90
64
70
1
10
236.25
20
90.825318
10
235.164413
20
91.377155
10
234.025269
20
91.814819
10
232.844925
20
92.13831
10
231.635742
20
92.347628
10
230.41008
20
92.442772
10
229.180298
20
92.423743
10
227.958755
20
92.290541
10
226.757812
20
92.043166
10
225.589828
20
91.681617
10
224.467163
20
91.205895
10
223.402138
20
90.616066
10
222.404785
20
89.91616
10
221.48159
20
89.116352
10
220.638733
20
88.227347
10
219.882393
20
87.259848
10
219.21875
20
86.224558
10
218.653984
20
85.132181
10
218.194275
20
83.993422
10
217.845802
20
82.818983
10
217.614746
20
81.619569
10
217.507286
20
80.405883
10
217.528992
20
79.18863
10
217.678337
20
77.978512
10
217.949219
20
76.786234
10
218.335457
20
75.622499
10
218.830872
20
74.498011
10
219.429283
20
73.423474
10
220.124512
20
72.409592
10
220.910378
20
71.467068
10
221.780701
20
70.606606
10
222.729301
20
69.838909
10
223.75
20
69.174682
10
224.835587
20
68.622845
10
225.974731
20
68.185181
10
227.155075
20
67.86169
10
228.364258
20
67.652372
10
229.58992
20
67.557228
10
230.819702
20
67.576257
10
232.041245
20
67.709459
10
233.242188
20
67.956834
10
234.410172
20
68.318383
10
235.532837
20
68.794105
10
236.597862
20
69.383934
10
237.595215
20
70.08384
10
238.51841
20
70.883648
10
239.361267
20
71.772653
10
240.117607
20
72.740152
10
240.78125
20
73.775442
10
241.346016
20
74.867819
10
241.805725
20
76.006578
10
242.154198
20
77.181017
10
242.385254
20
78.380431
10
242.492714
20
79.594117
10
242.471008
20
80.81137
10
242.321663
20
82.021488
10
242.050781
20
83.213766
10
241.664543
20
84.377501
10
241.169128
20
85.501989
10
240.570717
20
86.576526
10
239.875488
20
87.590408
10
239.089622
20
88.532932
10
238.219299
20
89.393394
10
237.270699
20
90.161091
0
LWPOLYLINE
8
0
90
65
70
0
10
0
20
140
10
0.9375
20
141.561127
10
1.875
20
143.114014
10
2.8125
20
144.650421
10
3.75
20
146.162109
10
4.6875
20
147.640839
10
5.625
20
149.078369
10
6.5625
20
150.466461
10
7.5
20
151.796875
10
8.4375
20
153.061371
10
9.375
20
154.251709
10
10.3125
20
155.35965
10
11.25
20
156.376953
10
12.1875
20
157.29538
10
13.125
20
158.106689
10
14.0625
20
158.802643
10
15
20
159.375
10
15.9375
20
159.815521
10
16.875
20
160.115967
10
17.8125
20
160.268097
10
18.75
20
160.263672
10
19.6875
20
160.094452
10
20.625
20
159.753418
10
21.5625
20
159.247742
10
22.5
20
158.59375
10
23.4375
20
157.807922
10
24.375
20
156.906738
10
25.3125
20
155.906677
10
26.25
20
154.824219
10
27.1875
20
153.675842
10
28.125
20
152.478027
10
29.0625
20
151.247253
10
30
20
150
10
30.9375
20
148.752747
10
31.875
20
147.521973
10
32.8125
20
146.324158
10
33.75
20
145.175781
10
34.6875
20
144.093323
10
35.625
20
143.093262
10
36.5625
20
142.192078
10
37.5
20
141.40625
10
38.4375
20
140.752258
10
39.375
20
140.246582
10
40.3125
20
139.905548
10
41.25
20
139.736328
10
42.1875
20
139.731903
10
43.125
20
139.884033
10
44.0625
20
140.184479
10
45
20
140.625
10
45.9375
20
141.197357
10
46.875
20
141.893311
10
47.8125
20
142.70462
10
48.75
20
143.623047
10
49.6875
20
144.64035
10
50.625
20
145.748291
10
51.5625
20
146.938629
10
52.5
20
148.203125
10
53.4375
20
149.533539
10
54.375
20
150.921631
10
55.3125
20
152.359161
10
56.25
20
153.837891
10
57.1875
20
155.349579
10
58.125
20
156.885986
10
59.0625
20
158.438873
10
60
20
160
0
SPLINE
8
0
70
12
71
2
72
6
73
3
74
0
40
0
40
0
40
0
40
1
40
1
40
1
41
1
41
1
41
1
10
90
20
140
30
0
10
110
20
160
30
0
10
130
20
140
30
0
0
SPLINE
8
0
70
8
71
3
72
10
73
6
74
0
40
0
40
0
40
0
40
0
40
0.333333
40
0.666667
40
1
40
1
40
1
40
1
10
150
20
140
30
0
10
165
20
160
30
0
10
180
20
130
30
0
10
195
20
160
30
0
10
210
20
130
30
0
10
225
20
150
30
0
0
LINE
8
CONSTRUCTION
10
0
20
180
30
0
11
60
21
180
31
0
0
ENDSEC
0
EOF
