<svg xmlns="http://www.w3.org/2000/svg" width="560" height="264.0069" viewBox="0 0 384 181.0333">
  <rect width="100%" height="100%" fill="white"/>
  <line x1="48" y1="34" x2="48" y2="147.0333" stroke="#eceff1" stroke-width="0.5"/>
  <line x1="68" y1="34" x2="68" y2="147.0333" stroke="#cfd8dc" stroke-width="0.75"/>
  <line x1="88" y1="34" x2="88" y2="147.0333" stroke="#eceff1" stroke-width="0.5"/>
  <line x1="108" y1="34" x2="108" y2="147.0333" stroke="#eceff1" stroke-width="0.5"/>
  <line x1="128" y1="34" x2="128" y2="147.0333" stroke="#eceff1" stroke-width="0.5"/>
  <line x1="148" y1="34" x2="148" y2="147.0333" stroke="#eceff1" stroke-width="0.5"/>
  <line x1="168" y1="34" x2="168" y2="147.0333" stroke="#eceff1" stroke-width="0.5"/>
  <line x1="188" y1="34" x2="188" y2="147.0333" stroke="#eceff1" stroke-width="0.5"/>
  <line x1="208" y1="34" x2="208" y2="147.0333" stroke="#eceff1" stroke-width="0.5"/>
  <line x1="228" y1="34" x2="228" y2="147.0333" stroke="#eceff1" stroke-width="0.5"/>
  <line x1="248" y1="34" x2="248" y2="147.0333" stroke="#eceff1" stroke-width="0.5"/>
  <line x1="268" y1="34" x2="268" y2="147.0333" stroke="#eceff1" stroke-width="0.5"/>
  <line x1="288" y1="34" x2="288" y2="147.0333" stroke="#eceff1" stroke-width="0.5"/>
  <line x1="308" y1="34" x2="308" y2="147.0333" stroke="#eceff1" stroke-width="0.5"/>
  <line x1="328" y1="34" x2="328" y2="147.0333" stroke="#eceff1" stroke-width="0.5"/>
  <line x1="348" y1="34" x2="348" y2="147.0333" stroke="#eceff1" stroke-width="0.5"/>
  <line x1="34" y1="140.5167" x2="350" y2="140.5167" stroke="#eceff1" stroke-width="0.5"/>
  <line x1="34" y1="120.5167" x2="350" y2="120.5167" stroke="#cfd8dc" stroke-width="0.75"/>
  <line x1="34" y1="100.5167" x2="350" y2="100.5167" stroke="#eceff1" stroke-width="0.5"/>
  <line x1="34" y1="80.5167" x2="350" y2="80.5167" stroke="#eceff1" stroke-width="0.5"/>
  <line x1="34" y1="60.5167" x2="350" y2="60.5167" stroke="#eceff1" stroke-width="0.5"/>
  <line x1="34" y1="40.5167" x2="350" y2="40.5167" stroke="#eceff1" stroke-width="0.5"/>
  <rect x="34" y="34" width="316" height="113.0333" fill="none" stroke="#90a4ae" stroke-width="1"/>
  <line x1="68" y1="112.5167" x2="128" y2="112.5167" stroke="#1a73e8" stroke-width="1"/>
  <line x1="128" y1="112.5167" x2="128" y2="68.5167" stroke="#1a73e8" stroke-width="1"/>
  <line x1="128" y1="68.5167" x2="68" y2="68.5167" stroke="#1a73e8" stroke-width="1"/>
  <line x1="68" y1="68.5167" x2="68" y2="112.5167" stroke="#1a73e8" stroke-width="1"/>
  <line x1="206" y1="90.5167" x2="193" y2="68" stroke="#1a73e8" stroke-width="1"/>
  <line x1="180" y1="90.5167" x2="206" y2="90.5167" stroke="#bbbbbb" stroke-width="1" stroke-dasharray="4,3"/>
  <line x1="193" y1="68" x2="167" y2="68" stroke="#1a73e8" stroke-width="1"/>
  <line x1="180" y1="90.5167" x2="193" y2="68" stroke="#bbbbbb" stroke-width="1" stroke-dasharray="4,3"/>
  <line x1="167" y1="68" x2="154" y2="90.5167" stroke="#1a73e8" stroke-width="1"/>
  <line x1="180" y1="90.5167" x2="167" y2="68" stroke="#bbbbbb" stroke-width="1" stroke-dasharray="4,3"/>
  <line x1="154" y1="90.5167" x2="167" y2="113.0333" stroke="#1a73e8" stroke-width="1"/>
  <line x1="180" y1="90.5167" x2="154" y2="90.5167" stroke="#bbbbbb" stroke-width="1" stroke-dasharray="4,3"/>
  <line x1="167" y1="113.0333" x2="193" y2="113.0333" stroke="#1a73e8" stroke-width="1"/>
  <line x1="180" y1="90.5167" x2="167" y2="113.0333" stroke="#bbbbbb" stroke-width="1" stroke-dasharray="4,3"/>
  <line x1="193" y1="113.0333" x2="206" y2="90.5167" stroke="#1a73e8" stroke-width="1"/>
  <line x1="180" y1="90.5167" x2="193" y2="113.0333" stroke="#bbbbbb" stroke-width="1" stroke-dasharray="4,3"/>
  <path d="M236 74.5167 L235.2149 74.5359 L234.4317 74.5937 L233.6523 74.6898 L232.8786 74.8241 L232.1123 74.9962 L231.3554 75.2056 L230.6098 75.452 L229.8771 75.7346 L229.1591 76.0528 L228.4577 76.4059 L227.7744 76.793 L227.1109 77.2131 L226.4688 77.6653 L225.8497 78.1485 L225.2551 78.6614 L224.6863 79.203 L224.1448 79.7717 L223.6318 80.3664 L223.1487 80.9855 L222.6965 81.6275 L222.2763 82.291 L221.8893 82.9743 L221.5362 83.6758 L221.2179 84.3937 L220.9353 85.1264 L220.689 85.8721 L220.4795 86.629 L220.3074 87.3952 L220.1732 88.169 L220.077 88.9484 L220.0193 89.7316 L220 90.5167 L220.0193 91.3017 L220.077 92.0849 L220.1732 92.8643 L220.3074 93.6381 L220.4795 94.4043 L220.689 95.1612 L220.9353 95.9069 L221.2179 96.6396 L221.5362 97.3575 L221.8893 98.059 L222.2763 98.7423 L222.6965 99.4058 L223.1487 100.0478 L223.6318 100.667 L224.1448 101.2616 L224.6863 101.8304 L225.2551 102.3719 L225.8497 102.8848 L226.4688 103.368 L227.1109 103.8202 L227.7744 104.2403 L228.4577 104.6274 L229.1591 104.9805 L229.8771 105.2987 L230.6098 105.5814 L231.3554 105.8277 L232.1123 106.0372 L232.8786 106.2092 L233.6523 106.3435 L234.4317 106.4396 L235.2149 106.4974 L236 106.5167" fill="none" stroke="#1a73e8" stroke-width="1"/>
  <path d="M300 106.5167 L300.7851 106.4974 L301.5683 106.4396 L302.3477 106.3435 L303.1214 106.2092 L303.8877 106.0372 L304.6446 105.8277 L305.3902 105.5814 L306.1229 105.2987 L306.8409 104.9805 L307.5423 104.6274 L308.2256 104.2403 L308.8891 103.8202 L309.5312 103.368 L310.1503 102.8848 L310.7449 102.3719 L311.3137 101.8304 L311.8552 101.2616 L312.3682 100.667 L312.8513 100.0478 L313.3035 99.4058 L313.7237 98.7423 L314.1107 98.059 L314.4638 97.3575 L314.7821 96.6396 L315.0647 95.9069 L315.311 95.1612 L315.5205 94.4043 L315.6926 93.6381 L315.8268 92.8643 L315.923 92.0849 L315.9807 91.3017 L316 90.5167 L315.9807 89.7316 L315.923 88.9484 L315.8268 88.169 L315.6926 87.3952 L315.5205 86.629 L315.311 85.8721 L315.0647 85.1264 L314.7821 84.3937 L314.4638 83.6758 L314.1107 82.9743 L313.7237 82.291 L313.3035 81.6275 L312.8513 80.9855 L312.3682 80.3664 L311.8552 79.7717 L311.3137 79.203 L310.7449 78.6614 L310.1503 78.1485 L309.5312 77.6653 L308.8891 77.2131 L308.2256 76.793 L307.5423 76.4059 L306.8409 76.0528 L306.1229 75.7346 L305.3902 75.452 L304.6446 75.2056 L303.8877 74.9962 L303.1214 74.8241 L302.3477 74.6898 L301.5683 74.5937 L300.7851 74.5359 L300 74.5167" fill="none" stroke="#1a73e8" stroke-width="1"/>
  <line x1="236" y1="106.5167" x2="300" y2="106.5167" stroke="#1a73e8" stroke-width="1"/>
  <line x1="300" y1="74.5167" x2="236" y2="74.5167" stroke="#1a73e8" stroke-width="1"/>
  <line x1="236" y1="90.5167" x2="236" y2="106.5167" stroke="#bbbbbb" stroke-width="1" stroke-dasharray="4,3"/>
  <line x1="300" y1="90.5167" x2="300" y2="106.5167" stroke="#bbbbbb" stroke-width="1" stroke-dasharray="4,3"/>
  <line x1="236" y1="90.5167" x2="236" y2="74.5167" stroke="#bbbbbb" stroke-width="1" stroke-dasharray="4,3"/>
  <line x1="300" y1="90.5167" x2="300" y2="74.5167" stroke="#bbbbbb" stroke-width="1" stroke-dasharray="4,3"/>
  <text x="350" y="167.4333" font-size="6.0409" fill="#b0b3b8" text-anchor="end">github.com/lestrrat-3d/sketch</text>
</svg>
