<svg xmlns="http://www.w3.org/2000/svg" width="560" height="248.8889" viewBox="0 0 306 136">
  <rect width="100%" height="100%" fill="white"/>
  <line x1="48" y1="34" x2="48" y2="102" stroke="#eceff1" stroke-width="0.5"/>
  <line x1="68" y1="34" x2="68" y2="102" stroke="#cfd8dc" stroke-width="0.75"/>
  <line x1="88" y1="34" x2="88" y2="102" stroke="#eceff1" stroke-width="0.5"/>
  <line x1="108" y1="34" x2="108" y2="102" stroke="#eceff1" stroke-width="0.5"/>
  <line x1="128" y1="34" x2="128" y2="102" stroke="#eceff1" stroke-width="0.5"/>
  <line x1="148" y1="34" x2="148" y2="102" stroke="#eceff1" stroke-width="0.5"/>
  <line x1="168" y1="34" x2="168" y2="102" stroke="#eceff1" stroke-width="0.5"/>
  <line x1="188" y1="34" x2="188" y2="102" stroke="#eceff1" stroke-width="0.5"/>
  <line x1="208" y1="34" x2="208" y2="102" stroke="#eceff1" stroke-width="0.5"/>
  <line x1="228" y1="34" x2="228" y2="102" stroke="#eceff1" stroke-width="0.5"/>
  <line x1="248" y1="34" x2="248" y2="102" stroke="#eceff1" stroke-width="0.5"/>
  <line x1="268" y1="34" x2="268" y2="102" stroke="#eceff1" stroke-width="0.5"/>
  <line x1="34" y1="88" x2="272" y2="88" stroke="#eceff1" stroke-width="0.5"/>
  <line x1="34" y1="68" x2="272" y2="68" stroke="#cfd8dc" stroke-width="0.75"/>
  <line x1="34" y1="48" x2="272" y2="48" stroke="#eceff1" stroke-width="0.5"/>
  <rect x="34" y="34" width="238" height="68" fill="none" stroke="#90a4ae" stroke-width="1"/>
  <line x1="68" y1="68" x2="238" y2="68" stroke="#d93025" stroke-width="1"/>
  <circle cx="68" cy="68" r="2" fill="#202124"/>
  <circle cx="238" cy="68" r="2" fill="#d93025"/>
  <rect x="36" y="36" width="202.9188" height="14.994" rx="3.332" fill="white" fill-opacity="0.85" stroke="#5f6368" stroke-width="0.75"/>
  <text x="40.165" y="43.497" font-size="8.33" fill="#5f6368" dominant-baseline="central">DOF 0 · overconstrained · solvable=false</text>
  <text x="272" y="122.4" font-size="4.4554" fill="#b0b3b8" text-anchor="end">generated by github.com/lestrrat-3d/sketch@69031b6214e7</text>
</svg>
