<svg xmlns="http://www.w3.org/2000/svg" width="216" height="136" viewBox="0 0 216 136">
  <rect width="100%" height="100%" fill="white"/>
  <line x1="8" y1="128" x2="208" y2="128" stroke="#1a73e8" stroke-width="1"/>
  <line x1="208" y1="128" x2="208" y2="8" stroke="#1a73e8" stroke-width="1"/>
  <line x1="208" y1="8" x2="8" y2="8" stroke="#1a73e8" stroke-width="1"/>
  <line x1="8" y1="8" x2="8" y2="128" stroke="#1a73e8" stroke-width="1"/>
  <circle cx="108" cy="68" r="25" fill="none" stroke="#1a73e8" stroke-width="1"/>
  <circle cx="8" cy="128" r="2" fill="#202124"/>
  <circle cx="208" cy="128" r="2" fill="#d93025"/>
  <circle cx="208" cy="8" r="2" fill="#d93025"/>
  <circle cx="8" cy="8" r="2" fill="#d93025"/>
  <circle cx="108" cy="68" r="2" fill="#d93025"/>
  <line x1="8" y1="128" x2="8" y2="145.4929" stroke="#5f6368" stroke-width="1"/>
  <line x1="208" y1="128" x2="208" y2="145.4929" stroke="#5f6368" stroke-width="1"/>
  <line x1="8" y1="141.9943" x2="208" y2="141.9943" stroke="#5f6368" stroke-width="1"/>
  <path d="M8 141.9943 L12.6648 140.3616 L12.6648 143.627 Z" fill="#5f6368"/>
  <path d="M208 141.9943 L203.3352 143.627 L203.3352 140.3616 Z" fill="#5f6368"/>
  <text x="108" y="148.525" font-size="9.3295" fill="#5f6368" text-anchor="middle" dominant-baseline="central">200 mm</text>
  <line x1="8" y1="128" x2="-9.4929" y2="128" stroke="#5f6368" stroke-width="1"/>
  <line x1="8" y1="8" x2="-9.4929" y2="8" stroke="#5f6368" stroke-width="1"/>
  <line x1="-5.9943" y1="128" x2="-5.9943" y2="8" stroke="#5f6368" stroke-width="1"/>
  <path d="M-5.9943 128 L-7.627 123.3352 L-4.3616 123.3352 Z" fill="#5f6368"/>
  <path d="M-5.9943 8 L-4.3616 12.6648 L-7.627 12.6648 Z" fill="#5f6368"/>
  <text x="-12.525" y="68" font-size="9.3295" fill="#5f6368" text-anchor="middle" dominant-baseline="central">120 mm</text>
  <line x1="8" y1="128" x2="8" y2="145.4929" stroke="#5f6368" stroke-width="1"/>
  <line x1="108" y1="68" x2="108" y2="145.4929" stroke="#5f6368" stroke-width="1"/>
  <line x1="8" y1="141.9943" x2="108" y2="141.9943" stroke="#5f6368" stroke-width="1"/>
  <path d="M8 141.9943 L12.6648 140.3616 L12.6648 143.627 Z" fill="#5f6368"/>
  <path d="M108 141.9943 L103.3352 143.627 L103.3352 140.3616 Z" fill="#5f6368"/>
  <text x="58" y="148.525" font-size="9.3295" fill="#5f6368" text-anchor="middle" dominant-baseline="central">100 mm</text>
  <line x1="8" y1="128" x2="125.4929" y2="128" stroke="#5f6368" stroke-width="1"/>
  <line x1="108" y1="68" x2="125.4929" y2="68" stroke="#5f6368" stroke-width="1"/>
  <line x1="121.9943" y1="128" x2="121.9943" y2="68" stroke="#5f6368" stroke-width="1"/>
  <path d="M121.9943 128 L120.3616 123.3352 L123.627 123.3352 Z" fill="#5f6368"/>
  <path d="M121.9943 68 L123.627 72.6648 L120.3616 72.6648 Z" fill="#5f6368"/>
  <text x="128.525" y="98" font-size="9.3295" fill="#5f6368" text-anchor="middle" dominant-baseline="central">60 mm</text>
  <line x1="108" y1="68" x2="125.6777" y2="50.3223" stroke="#5f6368" stroke-width="1"/>
  <path d="M125.6777 50.3223 L123.5337 54.7753 L121.2247 52.4663 Z" fill="#5f6368"/>
  <text x="132.2746" y="43.7254" font-size="9.3295" fill="#5f6368" text-anchor="middle" dominant-baseline="central">R25 mm</text>
</svg>
